<mxfile host="app.diagrams.net" agent="Mozilla/5.0 (Macintosh; Intel Mac OS X 10_15_7) AppleWebKit/605.1.15 (KHTML, like Gecko) Version/18.0 Safari/605.1.15" version="26.2.4">
  <diagram name="因果解耦学习" id="Xn1MKm5G6cUb3gmnLiGP">
    <mxGraphModel dx="948" dy="652" grid="1" gridSize="10" guides="1" tooltips="1" connect="1" arrows="1" fold="1" page="1" pageScale="1" pageWidth="827" pageHeight="1169" math="0" shadow="0">
      <root>
        <mxCell id="0" />
        <mxCell id="1" parent="0" />
        <mxCell id="1oDXLKxFo-u_jyNa0GS2-1" value="" style="rounded=0;whiteSpace=wrap;html=1;" vertex="1" parent="1">
          <mxGeometry x="10" y="40" width="160" height="40" as="geometry" />
        </mxCell>
        <mxCell id="1oDXLKxFo-u_jyNa0GS2-2" value="" style="rounded=0;whiteSpace=wrap;html=1;" vertex="1" parent="1">
          <mxGeometry x="170" y="40" width="160" height="40" as="geometry" />
        </mxCell>
        <mxCell id="1oDXLKxFo-u_jyNa0GS2-3" value="" style="rounded=0;whiteSpace=wrap;html=1;" vertex="1" parent="1">
          <mxGeometry x="330" y="40" width="160" height="40" as="geometry" />
        </mxCell>
        <mxCell id="1oDXLKxFo-u_jyNa0GS2-4" value="" style="rounded=0;whiteSpace=wrap;html=1;" vertex="1" parent="1">
          <mxGeometry x="490" y="40" width="160" height="40" as="geometry" />
        </mxCell>
        <mxCell id="1oDXLKxFo-u_jyNa0GS2-5" value="" style="rounded=0;whiteSpace=wrap;html=1;" vertex="1" parent="1">
          <mxGeometry x="650" y="40" width="160" height="40" as="geometry" />
        </mxCell>
        <mxCell id="1oDXLKxFo-u_jyNa0GS2-6" value="" style="curved=1;endArrow=none;html=1;rounded=0;startFill=0;entryX=0;entryY=0.5;entryDx=0;entryDy=0;fillColor=#f8cecc;strokeColor=#b85450;" edge="1" parent="1" target="1oDXLKxFo-u_jyNa0GS2-2">
          <mxGeometry width="50" height="50" relative="1" as="geometry">
            <mxPoint x="10" y="60" as="sourcePoint" />
            <mxPoint x="200" y="70" as="targetPoint" />
            <Array as="points">
              <mxPoint x="40" y="70" />
              <mxPoint x="80" y="60" />
              <mxPoint x="140" y="50" />
            </Array>
          </mxGeometry>
        </mxCell>
        <mxCell id="1oDXLKxFo-u_jyNa0GS2-7" value="" style="curved=1;endArrow=none;html=1;rounded=0;startFill=0;entryX=0;entryY=0.5;entryDx=0;entryDy=0;fillColor=#f8cecc;strokeColor=#b85450;" edge="1" parent="1">
          <mxGeometry width="50" height="50" relative="1" as="geometry">
            <mxPoint x="170" y="60" as="sourcePoint" />
            <mxPoint x="330" y="60" as="targetPoint" />
            <Array as="points">
              <mxPoint x="200" y="70" />
              <mxPoint x="240" y="60" />
              <mxPoint x="300" y="50" />
            </Array>
          </mxGeometry>
        </mxCell>
        <mxCell id="1oDXLKxFo-u_jyNa0GS2-8" value="" style="curved=1;endArrow=none;html=1;rounded=0;startFill=0;entryX=0;entryY=0.5;entryDx=0;entryDy=0;fillColor=#f8cecc;strokeColor=#b85450;" edge="1" parent="1">
          <mxGeometry width="50" height="50" relative="1" as="geometry">
            <mxPoint x="330" y="60" as="sourcePoint" />
            <mxPoint x="490" y="60" as="targetPoint" />
            <Array as="points">
              <mxPoint x="360" y="70" />
              <mxPoint x="450" y="70" />
            </Array>
          </mxGeometry>
        </mxCell>
        <mxCell id="1oDXLKxFo-u_jyNa0GS2-9" value="" style="curved=1;endArrow=none;html=1;rounded=0;startFill=0;entryX=0;entryY=0.5;entryDx=0;entryDy=0;fillColor=#f8cecc;strokeColor=#b85450;" edge="1" parent="1">
          <mxGeometry width="50" height="50" relative="1" as="geometry">
            <mxPoint x="490" y="60" as="sourcePoint" />
            <mxPoint x="650" y="60" as="targetPoint" />
            <Array as="points">
              <mxPoint x="520" y="70" />
              <mxPoint x="560" y="60" />
              <mxPoint x="620" y="50" />
            </Array>
          </mxGeometry>
        </mxCell>
        <mxCell id="1oDXLKxFo-u_jyNa0GS2-10" value="" style="curved=1;endArrow=none;html=1;rounded=0;startFill=0;entryX=0;entryY=0.5;entryDx=0;entryDy=0;fillColor=#f8cecc;strokeColor=#b85450;" edge="1" parent="1">
          <mxGeometry width="50" height="50" relative="1" as="geometry">
            <mxPoint x="650" y="60" as="sourcePoint" />
            <mxPoint x="810" y="60" as="targetPoint" />
            <Array as="points">
              <mxPoint x="680" y="70" />
              <mxPoint x="720" y="60" />
              <mxPoint x="780" y="50" />
            </Array>
          </mxGeometry>
        </mxCell>
        <mxCell id="1oDXLKxFo-u_jyNa0GS2-11" value="" style="rounded=0;whiteSpace=wrap;html=1;" vertex="1" parent="1">
          <mxGeometry x="250" y="210" width="120" height="60" as="geometry" />
        </mxCell>
        <mxCell id="1oDXLKxFo-u_jyNa0GS2-12" value="" style="shape=trapezoid;perimeter=trapezoidPerimeter;whiteSpace=wrap;html=1;fixedSize=1;rotation=-180;size=40;" vertex="1" parent="1">
          <mxGeometry x="10" y="80" width="160" height="50" as="geometry" />
        </mxCell>
      </root>
    </mxGraphModel>
  </diagram>
</mxfile>
